<svg width="238" height="59" viewBox="0 0 238 59" fill="none" xmlns="http://www.w3.org/2000/svg">
<path d="M38.4541 9.98V39H33.1541V21.18C33.1541 20.8067 33.1607 20.4067 33.1741 19.98C33.2007 19.5533 33.2407 19.12 33.2941 18.68L24.9941 34.42C24.5407 35.2867 23.8407 35.72 22.8941 35.72H22.0541C21.5874 35.72 21.1741 35.6133 20.8141 35.4C20.4541 35.1733 20.1674 34.8467 19.9541 34.42L11.6141 18.62C11.6541 19.0867 11.6874 19.54 11.7141 19.98C11.7407 20.4067 11.7541 20.8067 11.7541 21.18V39H6.45406V9.98H11.0141C11.2674 9.98 11.4941 9.98667 11.6941 10C11.8941 10.0133 12.0674 10.0533 12.2141 10.12C12.3741 10.1733 12.5141 10.2667 12.6341 10.4C12.7674 10.52 12.8941 10.6933 13.0141 10.92L21.1341 26.4C21.3874 26.8667 21.6207 27.3467 21.8341 27.84C22.0607 28.3333 22.2741 28.84 22.4741 29.36C22.6741 28.8267 22.8807 28.3067 23.0941 27.8C23.3207 27.2933 23.5607 26.8067 23.8141 26.34L31.8741 10.92C31.9941 10.6933 32.1207 10.52 32.2541 10.4C32.3874 10.2667 32.5274 10.1733 32.6741 10.12C32.8341 10.0533 33.0074 10.0133 33.1941 10C33.3941 9.98667 33.6274 9.98 33.8941 9.98H38.4541ZM52.4159 18.06C53.9626 18.06 55.3693 18.3067 56.6359 18.8C57.9026 19.2933 58.9893 20 59.8959 20.92C60.8026 21.8267 61.5026 22.9333 61.9959 24.24C62.4893 25.5467 62.7359 27.02 62.7359 28.66C62.7359 30.3 62.4893 31.78 61.9959 33.1C61.5026 34.4067 60.8026 35.52 59.8959 36.44C58.9893 37.36 57.9026 38.0667 56.6359 38.56C55.3693 39.0533 53.9626 39.3 52.4159 39.3C50.8559 39.3 49.4359 39.0533 48.1559 38.56C46.8893 38.0667 45.8026 37.36 44.8959 36.44C43.9893 35.52 43.2826 34.4067 42.7759 33.1C42.2826 31.78 42.0359 30.3 42.0359 28.66C42.0359 27.02 42.2826 25.5467 42.7759 24.24C43.2826 22.9333 43.9893 21.8267 44.8959 20.92C45.8026 20 46.8893 19.2933 48.1559 18.8C49.4359 18.3067 50.8559 18.06 52.4159 18.06ZM52.4159 35.16C53.9893 35.16 55.1559 34.62 55.9159 33.54C56.6759 32.4467 57.0559 30.8267 57.0559 28.68C57.0559 26.5467 56.6759 24.94 55.9159 23.86C55.1559 22.7667 53.9893 22.22 52.4159 22.22C50.8026 22.22 49.6159 22.7667 48.8559 23.86C48.0959 24.94 47.7159 26.5467 47.7159 28.68C47.7159 30.8267 48.0959 32.4467 48.8559 33.54C49.6159 34.62 50.8026 35.16 52.4159 35.16ZM85.0819 18.38V39H79.5619V27.66C79.5619 27.3533 79.5752 27.0067 79.6019 26.62C79.6419 26.22 79.6952 25.8267 79.7619 25.44C79.4552 26.1067 79.1419 26.6733 78.8219 27.14C78.7952 27.1667 78.6752 27.34 78.4619 27.66C78.2485 27.98 77.9685 28.3933 77.6219 28.9C77.2752 29.3933 76.8819 29.9533 76.4419 30.58C76.0152 31.2067 75.5752 31.8467 75.1219 32.5C74.0685 34.02 72.8752 35.7467 71.5419 37.68C71.4352 37.84 71.3085 38 71.1619 38.16C71.0285 38.3067 70.8752 38.4467 70.7019 38.58C70.5419 38.7133 70.3685 38.82 70.1819 38.9C69.9952 38.98 69.7952 39.02 69.5819 39.02H66.2019V18.4H71.7219V29.74C71.7219 30.06 71.7019 30.42 71.6619 30.82C71.6219 31.22 71.5685 31.6133 71.5019 32C71.6619 31.6533 71.8219 31.3333 71.9819 31.04C72.1419 30.7467 72.3019 30.4867 72.4619 30.26C72.4752 30.2333 72.5885 30.06 72.8019 29.74C73.0285 29.42 73.3152 29.0133 73.6619 28.52C74.0085 28.0133 74.3952 27.4467 74.8219 26.82C75.2619 26.1933 75.7085 25.5533 76.1619 24.9C77.2152 23.38 78.4152 21.6533 79.7619 19.72C79.9619 19.4 80.2285 19.1 80.5619 18.82C80.9085 18.5267 81.2952 18.38 81.7219 18.38H85.0819ZM108.471 18.06C110.017 18.06 111.424 18.3067 112.691 18.8C113.957 19.2933 115.044 20 115.951 20.92C116.857 21.8267 117.557 22.9333 118.051 24.24C118.544 25.5467 118.791 27.02 118.791 28.66C118.791 30.3 118.544 31.78 118.051 33.1C117.557 34.4067 116.857 35.52 115.951 36.44C115.044 37.36 113.957 38.0667 112.691 38.56C111.424 39.0533 110.017 39.3 108.471 39.3C106.911 39.3 105.491 39.0533 104.211 38.56C102.944 38.0667 101.857 37.36 100.951 36.44C100.044 35.52 99.3373 34.4067 98.8306 33.1C98.3373 31.78 98.0906 30.3 98.0906 28.66C98.0906 27.02 98.3373 25.5467 98.8306 24.24C99.3373 22.9333 100.044 21.8267 100.951 20.92C101.857 20 102.944 19.2933 104.211 18.8C105.491 18.3067 106.911 18.06 108.471 18.06ZM108.471 35.16C110.044 35.16 111.211 34.62 111.971 33.54C112.731 32.4467 113.111 30.8267 113.111 28.68C113.111 26.5467 112.731 24.94 111.971 23.86C111.211 22.7667 110.044 22.22 108.471 22.22C106.857 22.22 105.671 22.7667 104.911 23.86C104.151 24.94 103.771 26.5467 103.771 28.68C103.771 30.8267 104.151 32.4467 104.911 33.54C105.671 34.62 106.857 35.16 108.471 35.16ZM144.357 34.98V44.24C144.357 44.7333 144.21 45.12 143.917 45.4C143.623 45.6933 143.25 45.84 142.797 45.84H139.337V39H122.257V18.38H127.777V34.98H135.057V18.38H140.557V34.98H144.357ZM159.985 26.26C159.985 25.6867 159.905 25.14 159.745 24.62C159.598 24.1 159.358 23.64 159.025 23.24C158.692 22.84 158.272 22.5267 157.765 22.3C157.258 22.06 156.652 21.94 155.945 21.94C154.625 21.94 153.592 22.3133 152.845 23.06C152.098 23.8067 151.612 24.8733 151.385 26.26H159.985ZM151.305 29.54C151.478 31.4733 152.025 32.8867 152.945 33.78C153.878 34.6733 155.092 35.12 156.585 35.12C157.345 35.12 157.998 35.0333 158.545 34.86C159.105 34.6733 159.592 34.4733 160.005 34.26C160.432 34.0333 160.812 33.8333 161.145 33.66C161.492 33.4733 161.832 33.38 162.165 33.38C162.592 33.38 162.925 33.54 163.165 33.86L164.765 35.86C164.178 36.54 163.532 37.1067 162.825 37.56C162.118 38 161.385 38.3533 160.625 38.62C159.865 38.8733 159.098 39.0467 158.325 39.14C157.552 39.2467 156.805 39.3 156.085 39.3C154.645 39.3 153.298 39.0667 152.045 38.6C150.805 38.12 149.718 37.42 148.785 36.5C147.865 35.5667 147.138 34.4133 146.605 33.04C146.072 31.6667 145.805 30.0733 145.805 28.26C145.805 26.86 146.032 25.54 146.485 24.3C146.952 23.06 147.618 21.98 148.485 21.06C149.352 20.14 150.405 19.4133 151.645 18.88C152.885 18.3333 154.285 18.06 155.845 18.06C157.165 18.06 158.378 18.2733 159.485 18.7C160.605 19.1133 161.565 19.72 162.365 20.52C163.178 21.32 163.805 22.3067 164.245 23.48C164.698 24.64 164.925 25.9667 164.925 27.46C164.925 27.8733 164.905 28.2133 164.865 28.48C164.825 28.7467 164.758 28.96 164.665 29.12C164.572 29.28 164.445 29.3933 164.285 29.46C164.125 29.5133 163.918 29.54 163.665 29.54H151.305ZM186.65 18.38V39H181.15V30.06H173.87V39H168.35V18.38H173.87V26.04H181.15V18.38H186.65ZM203.481 19.8C203.748 19.3867 204.108 19.0467 204.561 18.78C205.028 18.5133 205.514 18.38 206.021 18.38H210.381L205.781 25.96C205.448 26.52 205.108 26.9667 204.761 27.3C204.414 27.62 203.994 27.8733 203.501 28.06C204.181 28.2733 204.734 28.58 205.161 28.98C205.588 29.38 205.968 29.8867 206.301 30.5L210.881 39H207.081C206.601 39 206.174 38.96 205.801 38.88C205.441 38.8 205.114 38.68 204.821 38.52C204.541 38.36 204.294 38.1667 204.081 37.94C203.868 37.7133 203.668 37.4467 203.481 37.14L200.841 31.68C200.614 31.2 200.294 30.8467 199.881 30.62C199.468 30.38 199.001 30.26 198.481 30.26H196.761V39H191.241V18.38H196.761V26.72H198.201C198.761 26.72 199.194 26.6267 199.501 26.44C199.821 26.24 200.094 25.9267 200.321 25.5L203.481 19.8ZM232.269 18.38V39H226.749V27.66C226.749 27.3533 226.763 27.0067 226.789 26.62C226.829 26.22 226.883 25.8267 226.949 25.44C226.643 26.1067 226.329 26.6733 226.009 27.14C225.983 27.1667 225.863 27.34 225.649 27.66C225.436 27.98 225.156 28.3933 224.809 28.9C224.463 29.3933 224.069 29.9533 223.629 30.58C223.203 31.2067 222.763 31.8467 222.309 32.5C221.256 34.02 220.063 35.7467 218.729 37.68C218.623 37.84 218.496 38 218.349 38.16C218.216 38.3067 218.063 38.4467 217.889 38.58C217.729 38.7133 217.556 38.82 217.369 38.9C217.183 38.98 216.983 39.02 216.769 39.02H213.389V18.4H218.909V29.74C218.909 30.06 218.889 30.42 218.849 30.82C218.809 31.22 218.756 31.6133 218.689 32C218.849 31.6533 219.009 31.3333 219.169 31.04C219.329 30.7467 219.489 30.4867 219.649 30.26C219.663 30.2333 219.776 30.06 219.989 29.74C220.216 29.42 220.503 29.0133 220.849 28.52C221.196 28.0133 221.583 27.4467 222.009 26.82C222.449 26.1933 222.896 25.5533 223.349 24.9C224.403 23.38 225.603 21.6533 226.949 19.72C227.149 19.4 227.416 19.1 227.749 18.82C228.096 18.5267 228.483 18.38 228.909 18.38H232.269Z" fill="white"/>
<path d="M3 55.384L8.64119 51.5707C14.4348 47.6544 25.1007 48.0927 29.8851 52.4436C34.3712 56.5233 44.1584 57.2159 50.2035 53.8814L56.3864 50.4709C62.6839 46.9971 72.9053 47.7954 77.395 52.1117C81.8159 56.362 91.8246 57.2146 98.165 53.881L103.729 50.9557C111.395 46.9253 123.206 47.1847 130.325 51.5398L132.28 52.7358C138.932 56.8057 150.173 56.6831 156.557 52.471L158.556 51.1521C164.388 47.3043 174.835 47.5234 180.173 51.6055C185.84 55.9397 197.176 55.8172 202.676 51.4109C207.72 47.3697 217.822 46.82 223.993 50.2958L235 55.384" stroke="white" stroke-width="5" stroke-linecap="round"/>
</svg>
